<?xml version="1.0" encoding="UTF-8" standalone="no"?>
<svg
   version="1.1"
   id="Ebene_1"
   x="0px"
   y="0px"
   viewBox="0 0 562 167"
   xml:space="preserve"
   width="562"
   height="167"
   xmlns="http://www.w3.org/2000/svg"
   xmlns:svg="http://www.w3.org/2000/svg"
   xmlns:i="&amp;ns_ai;"><defs
   id="defs179">
</defs>
<style
   type="text/css"
   id="style148">
	.st0{fill:#FFFFFF;}
</style>
  <g
   id="g242"
   transform="matrix(0.66744888,0,0,0.66744888,-93.538566,-51.157183)"><path
     class="st0"
     d="M 724.9,215.5 723.6,165 h 33.7 l 1.7,53.5 c 0,0 15.1,1.6 21.7,2.4 L 775.8,86.5 h -75.3 c 0,0 3,125.5 3,128.1 z m 30.3,-108.7 1.5,36.9 h -33.4 l -0.9,-37 z"
     id="path150"
     style="fill:#000000" /><path
     class="st0"
     d="m 809.1,224.3 c -0.1,-2.2 -1.8,-50.1 -2.1,-58.4 h 17.4 c 2.4,9.1 17.2,64.6 17.3,65.2 0,0 17.1,3.3 23.4,4.9 0,0 -16.2,-60.5 -18.7,-70.1 h 5.9 l 9.3,-9.4 -3.5,-69.9 h -75.4 c 0,0 4.9,129.4 5.1,134.9 z m 28.6,-117.5 1.8,37.8 -33.3,-0.3 -1.4,-37.5 z"
     id="path152"
     style="fill:#000000" /><path
     class="st0"
     d="m 640.7,212.9 -0.6,-47.7 h 45.7 l 9.4,-9.8 -1.5,-68.8 h -75.6 l 1.1,126.3 z m 32.2,-106.2 0.9,37.1 -33.6,0.1 -0.5,-37.2 z"
     id="path154"
     style="fill:#000000" /><path
     class="st0"
     d="m 974.6,321.5 c -6.2,-24.4 -48.8,-170.1 -52,-180.9 1.7,-3 13.2,-23.5 17.2,-30.7 4.3,-7.8 10.9,-15.2 16.3,-19 3.8,-2.7 7.1,-4.3 7.1,-4.3 h -36.3 -0.1 -0.2 l -35.3,63.7 -3.6,-63.7 H 865 c 0,0 7.9,149.1 8,150.9 7.8,1.8 24,6.1 29.9,8 -0.8,-1.6 -7.4,-15.9 -7.9,-26.2 -0.6,-10.3 -1.9,-35.6 -1.9,-35.6 l 12.2,-21.1 c 0,0 34.3,111.4 35,123 -15,-4.8 -52.3,-16.7 -56,-17.8 0,0 12.8,-9.7 17.1,-12.5 -116.6,-32.4 -186.2,-33.2 -290.5,-33.2 0,1.5 0,1.1 0,1.7 16.5,0 156.3,0 256.6,35.3 0,0 -17.2,12.7 -19.4,14.2 30.7,7.7 77.7,25 126.5,48.2 z"
     id="path156"
     style="fill:#000000" /><path
     class="st0"
     d="m 444.9,171.8 9.4,-14.2 27.2,55.6 h 23.8 l -36,-73.3 37.8,-53.2 h -26.5 l -35.1,50.5 1.4,-50.5 h -21.2 c 0,0 -3.1,126.9 -3.1,127.5 l 21.3,-0.6 c 0,-1.9 0.9,-37.9 1,-41.8 z"
     id="path158"
     style="fill:#000000" /><path
     class="st0"
     d="m 335.1,221.6 5.2,-135 H 267 c 0,0 -7.5,148.6 -7.5,149.3 0,0 35.1,-8.6 75.6,-14.3 z M 287.4,106.7 h 30.7 l -3.6,97.3 -32.4,6.3 z"
     id="path160"
     style="fill:#000000" /><path
     class="st0"
     d="m 416.9,175 v -1.2 h -21.4 l -0.4,21.2 -30.6,2.8 3.1,-91 h 29.9 l -0.6,18.3 H 418 l 0.9,-38.5 H 347 l -0.3,8.5 c -0.2,4.8 -4.6,118.3 -4.6,125.6 l 73.7,-6.3 c 0,-8.8 1.1,-39.1 1.1,-39.4 z"
     id="path162"
     style="fill:#000000" /><path
     class="st0"
     d="m 240.7,267.8 c -3.2,1 -60.4,19.1 -60.4,19.1 l 11.8,-109.5 h 20.5 l 10.2,42.9 c 3.2,14.6 -0.5,24.9 -0.5,24.9 l 29.6,-7.7 -15.6,-60.1 h 8 l 11.6,-11.1 3.4,-66.6 0.6,-13.1 h -64.6 -33.9 c 14.4,6.6 15.5,22.7 14.5,38.2 0,0 -19.6,149.8 -25.5,196.8 54.5,-25.6 93,-39.1 126.6,-48.2 -5.9,-4.2 -19.4,-14.2 -19.4,-14.2 78,-26.8 184.9,-35.3 256.7,-35.3 0,-0.7 0,-1.7 0,-1.7 -121.3,0 -178.6,2.6 -290.5,33.2 8.1,5.5 16.9,12.4 16.9,12.4 z M 200.9,109.5 h 35 l -2,40.5 -5,4.6 H 195 Z"
     id="path164"
     style="fill:#000000" /><polygon
     class="st0"
     points="592.4,109.2 579.6,109.2 565,154.3 551.7,109.2 539.5,109.2 539.1,188.9 553.1,188.9 553.1,161.7 562.2,188.9 570.3,188.9 579.5,161.7 579.5,188.9 592.8,188.9 "
     id="polygon166"
     style="fill:#000000" /><polygon
     class="st0"
     points="519.6,109.2 518.8,188.9 534,188.9 534.2,109.2 "
     id="polygon168"
     style="fill:#000000" /></g>
</svg>
