<?xml version="1.0" encoding="UTF-8"?>
<!-- Generated by Pixelmator Pro 3.6.15 -->
<svg width="1095" height="762" viewBox="0 0 1095 762" xmlns="http://www.w3.org/2000/svg">
    <g id="Ebene-1">
        <g id="Group">
            <path id="Path" fill="#363636" stroke="none" d="M 534.425842 581.557434 L 550.675476 581.604492 C 559.863281 581.63092 562.719604 587.825745 562.70752 592.513245 C 562.687073 599.451172 557.303772 602.187561 554.801331 602.490723 L 554.801331 602.616577 C 559.737122 603.630066 563.541687 606.330078 563.521179 613.204712 C 563.48877 624.265747 552.547058 625.234436 549.987915 625.226318 L 534.299622 625.18158 L 534.425842 581.557434 Z M 544.197449 617.834961 L 547.070435 617.842834 C 548.445923 617.847168 553.637451 617.861145 553.654236 612.235718 C 553.662109 608.425354 551.542053 606.480408 548.168701 606.471985 L 544.230042 606.460022 L 544.197449 617.834961 Z M 544.250366 599.334961 L 546.75293 599.343323 C 552.624634 599.359619 552.823792 594.798279 552.827942 593.986755 C 552.832031 592.424255 551.969543 588.733398 546.968689 588.719177 L 544.279236 588.710754 L 544.250366 599.334961 Z"/>
            <path id="path1" fill="#363636" stroke="none" d="M 598.152527 615.617615 L 584.464661 615.57666 L 581.437073 625.317871 L 571.561707 625.289673 L 586.189514 581.708252 L 597.436646 581.740784 L 611.311707 625.405334 L 600.813782 625.375122 L 598.152527 615.617615 Z M 591.723755 590.100342 L 591.601685 590.098816 L 586.360779 608.207397 L 596.174988 608.236145 L 591.723755 590.100342 Z"/>
            <path id="path2" fill="#363636" stroke="none" d="M 645.914612 590.755981 C 643.477478 589.498352 640.043396 588.489258 637.29248 588.481384 C 633.980408 588.470947 631.477844 589.964294 631.469604 593.213379 C 631.445435 601.149963 648.640808 597.514038 648.596191 613.013428 C 648.571655 621.262817 641.996277 626.243835 633.308777 626.219177 C 627.995056 626.202881 623.4375 624.939697 621.565857 624.371582 L 622.151672 615.873718 C 625.211731 617.070007 627.892944 618.577576 631.705872 618.589478 C 634.956604 618.5979 638.085815 616.982483 638.094177 613.420105 C 638.118347 604.982971 620.922974 609.057861 620.967468 593.496155 C 620.97168 592.183655 621.500793 581.061279 636.124573 581.104248 C 640.128723 581.116211 642.622864 581.809998 646.370422 582.633667 L 645.914612 590.755981 Z"/>
            <path id="path3" fill="#363636" stroke="none" d="M 661.995422 581.927979 L 672.245422 581.956726 L 672.119141 625.580322 L 661.869202 625.551575 L 661.995422 581.927979 Z"/>
            <path id="path4" fill="#363636" stroke="none" d="M 710.469543 590.942871 C 708.032104 589.685303 704.597839 588.676147 701.847473 588.668274 C 698.535034 588.657837 696.036682 590.151184 696.024597 593.400269 C 696.004089 601.337158 713.200012 597.701782 713.151306 613.200378 C 713.126648 621.450562 706.551208 626.430725 697.867981 626.406311 C 692.553711 626.39209 687.996277 625.126648 686.124573 624.559265 L 686.710388 616.060852 C 689.766296 617.259216 692.447937 618.764465 696.264526 618.777222 C 699.511719 618.785095 702.640808 617.169678 702.652893 613.606995 C 702.677551 605.169922 685.477478 609.245544 685.522461 593.68335 C 685.526672 592.371338 686.05957 581.248474 700.683716 581.291199 C 704.683289 581.303406 707.177856 581.997131 710.929138 582.821106 L 710.469543 590.942871 Z"/>
            <path id="path5" fill="#363636" stroke="none" d="M 724.991638 603.986328 L 740.551636 604.030823 L 740.531311 611.656189 L 724.967468 611.611145 L 724.991638 603.986328 Z"/>
            <path id="path6" fill="#363636" stroke="none" d="M 753.617493 582.192444 L 767.553711 582.233398 C 776.867554 582.261658 782.478699 586.714905 782.454529 596.153259 C 782.429993 603.589111 778.287903 609.953308 768.725464 609.925049 L 763.785828 609.910278 L 763.741333 625.846558 L 753.491211 625.816345 L 753.617493 582.192444 Z M 766.682922 602.293396 C 769.872925 602.303833 772.192505 600.122559 772.20459 596.059631 C 772.216675 591.748291 770.222839 589.866638 766.157898 589.854675 L 763.468323 589.846252 L 763.435852 602.283447 L 766.682922 602.293396 Z"/>
            <path id="path7" fill="#363636" stroke="none" d="M 813.899597 616.242188 L 800.211731 616.203308 L 797.184143 625.944519 L 787.308777 625.915771 L 801.936707 582.332825 L 813.183716 582.365417 L 827.058777 626.029968 L 816.560852 625.999695 L 813.899597 616.242188 Z M 807.470825 590.724915 L 807.348755 590.724915 L 802.107849 608.834045 L 811.922058 608.862793 L 807.470825 590.724915 Z"/>
            <path id="path8" fill="#363636" stroke="none" d="M 837.931213 582.43866 L 853.930786 582.483398 C 861.116638 582.505798 867.236206 585.710144 867.212036 593.772888 C 867.207947 595.585327 866.935486 602.771729 858.496216 604.43573 L 858.496216 604.560059 C 861.677917 604.944092 862.923279 606.696289 864.534607 611.889893 L 868.994141 626.152039 L 858.243713 626.121765 L 854.903259 614.424866 C 853.230774 608.480286 851.855469 608.478271 848.10791 608.466309 L 848.054993 626.090698 L 837.809143 626.0625 L 837.931213 582.43866 Z M 847.753784 601.090698 L 850.944153 601.099121 C 854.878723 601.111328 856.950012 598.49292 856.957886 595.36792 C 856.962097 593.55719 856.412903 589.866638 850.911743 589.850342 L 847.786743 589.842224 L 847.753784 601.090698 Z"/>
            <path id="path9" fill="#363636" stroke="none" d="M 887.597534 590.456604 L 878.100464 590.429932 L 878.120789 582.554626 L 907.36908 582.640076 L 907.348755 590.515381 L 897.847473 590.487122 L 897.745911 626.235413 L 887.491638 626.204895 L 887.597534 590.456604 Z"/>
            <path id="path10" fill="#363636" stroke="none" d="M 918.554565 582.670288 L 930.558411 582.707214 L 943.155823 612.992859 L 943.282043 612.992859 L 943.367493 582.743835 L 952.368286 582.770508 L 952.242004 626.394104 L 940.120422 626.357483 L 927.644958 594.759583 L 927.522888 594.759583 L 927.433411 626.320862 L 918.432495 626.294678 L 918.554565 582.670288 Z"/>
            <path id="path11" fill="#363636" stroke="none" d="M 966.682922 582.810974 L 991.869995 582.884216 L 991.845825 590.509521 L 976.534119 590.464478 L 976.505432 600.214111 L 991.064575 600.256592 L 991.048279 607.882141 L 976.485046 607.839722 L 976.452515 618.837952 L 992.512878 618.884521 L 992.492554 626.510071 L 966.552856 626.435059 L 966.682922 582.810974 Z"/>
            <path id="path12" fill="#363636" stroke="none" d="M 1005.371216 582.922852 L 1021.370422 582.969666 C 1028.556152 582.98999 1034.67627 586.19635 1034.651733 594.259094 C 1034.643799 596.071594 1034.375 603.257996 1025.931641 604.921936 L 1025.931641 605.046326 C 1029.11792 605.428833 1030.362915 607.182007 1031.970459 612.374084 L 1036.429932 626.638245 L 1025.679565 626.605713 L 1022.338745 614.911377 C 1020.670471 608.966553 1019.295349 608.962463 1015.543762 608.952576 L 1015.495056 626.576965 L 1005.240906 626.546692 L 1005.371216 582.922852 Z M 1015.193787 601.574951 L 1018.379578 601.585388 C 1022.314575 601.59552 1024.385498 598.977112 1024.397949 595.852112 C 1024.397949 594.041138 1023.848328 590.352844 1018.351257 590.336609 L 1015.226257 590.326172 L 1015.193787 601.574951 Z"/>
        </g>
        <path id="path13" fill="#363636" stroke="none" d="M 181.282486 196.0495 L 181.282486 168.896973 L 189.571259 168.636536 C 201.004974 168.636536 206.722076 173.055481 206.722076 182.149475 C 206.722076 191.374207 200.575836 196.0495 188.572052 196.0495 L 181.282486 196.0495 Z M 156.416641 251.009613 L 199.576691 251.009613 C 204.864563 251.009613 209.580414 250.48877 213.582489 249.451172 C 225.870834 246.330505 234.017059 236.458801 234.017059 224.634277 C 234.017059 211.381775 225.301239 203.068237 209.151276 201.119446 C 222.869995 199.039917 230.731262 191.374207 230.731262 179.940552 C 230.731262 169.678223 223.299149 161.100769 212.009552 158.634949 C 208.437088 157.723206 204.292938 157.332825 199.432495 157.332825 L 156.559174 157.332825 C 157.273361 164.608215 157.417938 168.896973 157.417938 175.912231 L 157.702515 232.56073 L 157.273361 238.794678 L 156.988342 242.822998 L 156.70166 248.799866 L 156.416641 251.009613 Z M 181.427063 239.185059 L 181.427063 207.743835 L 189.428772 207.743835 C 202.577911 207.743835 209.151276 213.069885 209.151276 223.59668 C 209.151276 233.728271 203.149597 239.185059 191.85791 239.185059 L 181.427063 239.185059 Z"/>
        <path id="path14" fill="#363636" stroke="none" d="M 179.496262 267.175781 L 179.211243 269.385498 C 178.782074 274.451172 178.497498 280.949646 178.497498 285.754883 L 178.497498 305.245453 L 208.079147 305.245453 L 208.079147 285.754883 C 208.079147 280.168396 207.649612 273.543793 207.077911 267.175781 L 233.089188 267.175781 C 232.802521 269.255035 232.659973 270.166748 232.659973 271.724945 C 232.517502 273.283356 232.375015 275.883209 232.088348 279.390961 C 231.945862 282.247406 231.945862 284.32666 231.945862 285.754883 L 231.945862 342.403656 C 231.945862 348.380768 232.23082 353.837555 232.946655 360.852539 L 207.222488 360.852539 C 207.649612 354.874908 208.079147 347.599518 208.079147 342.273438 L 208.079147 317.847168 L 178.497498 317.847168 L 178.497498 342.273438 C 178.497498 345.911133 178.782074 352.018707 179.069138 356.437408 C 179.069138 357.865875 179.211243 358.773285 179.353775 360.852539 L 153.629562 360.852539 C 154.343735 354.488861 154.630402 348.250824 154.630402 342.403656 L 154.630402 285.754883 C 154.630402 284.196198 154.48793 282.117188 154.343735 279.390961 C 154.201248 276.140076 154.058777 273.543793 153.916229 271.724945 C 153.772095 270.166748 153.772095 269.255035 153.487076 267.175781 L 179.496262 267.175781 Z"/>
        <path id="path15" fill="#363636" stroke="none" d="M 228.373337 401.835358 C 226.800415 399.369537 226.086243 398.197906 224.656235 396.639496 C 219.226257 390.662109 211.079987 387.024658 203.078339 387.024658 C 190.929993 387.024658 180.926636 394.430023 177.638748 405.603271 C 176.066269 411.580902 174.922501 419.377106 174.922501 426.652496 C 174.922501 448.869049 183.068726 460.563629 199.076263 460.563629 C 203.078339 460.563629 206.079163 459.782379 209.365021 457.572906 L 209.365021 441.072815 C 209.365021 434.835541 209.080002 429.508698 208.365814 422.494232 L 233.660828 422.494232 C 233.374146 424.573242 233.374146 425.61084 233.231674 427.043396 C 232.946655 428.992188 232.802521 431.458008 232.659973 434.709137 C 232.517502 437.044495 232.375015 438.863861 232.375015 440.165955 L 232.375015 446.660095 C 232.375015 447.571289 232.517502 449.129456 232.659973 451.339203 C 232.802521 455.623871 233.231674 458.223694 233.231674 459.001129 C 233.374146 460.173004 233.374146 461.34082 233.660828 463.550293 C 230.945007 464.978271 228.80249 465.889984 227.514587 466.537201 C 219.368362 470.174652 209.365021 472.253662 199.503769 472.253662 C 169.349991 472.253662 149.914612 454.06543 149.914612 426.262146 C 149.914612 396.379059 172.208725 375.720947 204.221664 375.720947 C 213.224152 375.720947 219.368362 376.892578 228.373337 380.139648 L 228.373337 401.835358 Z"/>
        <path id="path16" fill="#363636" stroke="none" d="M 102.618347 136.316162 L 90.761246 125.843018 L 94.470406 121.643799 C 95.804977 120.129883 96.84874 119.259094 97.843361 118.542969 C 100.878777 116.43927 104.247917 116.626709 106.996666 119.051575 C 111.016655 122.603821 110.58165 127.303833 105.784164 132.735962 L 102.618347 136.316162 Z M 116.719566 163.02948 L 130.419983 147.518372 C 132.297897 145.394104 133.727905 143.363647 134.702484 141.337585 C 137.585388 135.510742 136.535828 128.902405 132.159607 125.037109 C 126.81459 120.312988 120.294189 121.130859 113.495003 127.185303 C 117.777504 120.80127 117.590393 114.754456 113.110413 110.799622 C 109.089981 107.247375 103.110825 107.349121 98.187065 110.97052 C 96.695839 112.044495 95.058311 113.590698 93.526268 115.324646 L 80.023323 130.607605 C 81.849991 131.824219 83.526672 133.105957 85.154152 134.444641 L 87.852097 136.829102 L 109.682083 155.913025 L 112.231255 158.464294 L 113.555847 159.733826 C 113.962936 160.095947 114.422478 160.600525 115.037094 161.34082 C 115.443741 161.702942 115.700401 162.028198 115.95459 162.252014 L 116.719566 163.02948 Z M 119.974579 151.648438 L 106.335388 139.600098 L 110.044159 135.400879 C 115.187515 129.577881 120.149612 128.678894 124.680389 132.683044 C 127.734566 135.380554 128.741272 139.058655 127.331673 142.399597 C 126.796661 143.620544 125.909615 144.930481 124.623741 146.387207 L 119.974579 151.648438 Z"/>
        <path id="path17" fill="#363636" stroke="none" d="M 132.948746 92.070007 L 150.290802 102.982788 L 139.557068 111.568665 L 132.948746 92.070007 Z M 140.482513 135.445923 L 146.547516 130.591309 C 145.418365 128.101318 144.903748 126.860046 143.959549 124.483704 C 143.335022 122.986328 142.946243 121.904236 142.645386 120.927429 L 141.339172 116.667175 L 154.756668 105.932861 L 158.569153 108.187622 C 160.197067 109.147644 163.161285 111.296326 166.109146 113.546204 L 167.022522 114.209473 L 177.054977 106.181335 L 175.882904 105.554688 C 173.480408 104.346191 169.449997 102.177429 167.492493 101.046204 L 131.766632 79.708313 L 123.659195 86.198425 L 125.762939 87.992859 L 137.687103 124.894714 C 138.179596 126.587402 139.26207 130.330872 139.872101 132.88623 C 140.104172 133.659058 140.26915 134.220886 140.482513 135.445923 Z"/>
        <path id="path18" fill="#363636" stroke="none" d="M 152.158737 65.092468 L 152.860382 65.544128 C 153.429993 65.918457 154.062912 66.252136 154.398727 66.524475 L 156.803314 67.940735 C 157.407501 68.37207 158.005844 68.648743 158.372055 68.82782 L 162.072937 70.817566 L 174.275848 77.470398 L 174.534164 63.415771 L 174.680389 57.959473 L 174.568756 54.549622 L 174.546234 52.905762 L 174.511658 51.819092 L 181.319168 47.778809 C 181.089142 49.732178 181.056656 50.696289 180.969177 52.014648 L 180.724976 55.554688 L 180.44249 59.908264 L 179.768753 81.160706 L 185.420868 90.678406 C 186.909988 93.189209 188.704559 95.914917 190.901688 99.032043 L 181.266281 104.752808 C 180.741241 103.723633 180.592926 103.178406 180.247055 102.596802 C 179.719986 101.562988 179.125854 100.415527 178.393738 99.036133 C 177.589996 97.538757 176.898315 96.370911 176.619598 95.903015 L 171.073334 86.560303 L 152.34375 76.672852 C 152.075012 76.51416 150.612518 75.802063 148.321655 74.874084 C 146.455826 73.92627 144.962494 73.311584 143.900421 72.840088 C 143.033722 72.40448 142.533295 72.147827 141.237518 71.574646 L 152.158737 65.092468 Z"/>
        <path id="path19" fill="#363636" stroke="none" d="M 204.624557 90.133423 C 203.883743 87.504578 202.589996 83.704102 201.800415 81.750732 L 190.962921 54.927795 C 189.81749 52.095764 188.285446 48.905945 186.641251 45.833801 L 216.217102 33.883423 L 218.302475 39.046692 L 216.823318 39.571594 C 213.145004 40.837097 209.285416 42.249268 206.860413 43.229675 L 198.549591 46.590942 L 204.630402 61.637878 L 210.933304 59.090942 C 213.704559 57.97168 216.259583 56.718445 219.985016 54.773438 L 222.32666 60.567444 C 218.131638 61.747986 215.144989 62.736755 212.721695 63.717102 L 206.487915 66.23584 L 212.95166 82.227051 L 223.270859 78.056335 C 226.940857 76.574951 229.66124 75.330078 233.575439 73.454285 L 235.73793 78.804993 L 204.986633 91.23175 L 204.624557 90.133423 Z"/>
        <path id="path20" fill="#363636" stroke="none" d="M 240.256683 32.589172 L 243.971695 31.750732 C 251.914597 29.960327 256.477936 31.85675 257.747528 37.484192 C 259.063721 43.315125 254.984604 47.298645 245.729568 49.386353 C 245.292084 49.483704 244.840424 49.516296 244.112076 49.682861 L 240.256683 32.589172 Z M 239.400421 77.685791 L 250.404999 75.203674 C 249.292053 71.973389 248.414993 68.762451 247.697067 65.58075 L 245.261642 54.781555 L 247.011246 54.387146 L 257.389191 63.395935 L 260.878296 66.296631 C 261.067902 66.463684 261.360809 66.744446 261.684174 67.159485 L 264.237518 69.649475 L 266.217102 71.639465 L 278.532104 68.860352 C 277.052948 67.733215 276.481262 67.233032 276.188354 66.951965 L 272.729553 64.180725 L 272.172089 63.749695 L 268.464966 60.897583 L 256.825836 50.712585 C 265.694183 47.250122 269.53125 41.512512 267.977081 34.623718 C 266.212921 26.802795 258.357941 23.214172 247.937073 25.566345 L 228.627518 29.924255 C 229.856232 33.333801 230.763748 36.682617 231.420837 39.595764 L 237.786682 67.818665 C 238.370834 70.398438 239.048325 74.422424 239.400421 77.685791 Z"/>
        <path id="path21" fill="#363636" stroke="none" d="M 287.247925 19.710754 L 287.27829 20.80127 C 287.380035 24.133789 287.530396 26.440918 287.855835 29.749268 L 290.675873 58.541321 C 290.895386 60.775513 291.467102 65.084045 292.020874 68.441223 L 281.017944 69.519531 L 280.973297 68.294495 C 280.912079 65.369141 280.653748 61.983704 280.415863 59.550476 L 277.595825 30.754089 C 277.311249 27.848816 276.825012 24.418884 276.170044 20.79718 L 287.247925 19.710754 Z"/>
        <path id="path22" fill="#363636" stroke="none" d="M 297.479187 56.999207 C 302.341644 61.353027 306.646667 63.253235 311.425842 63.326782 C 317.177521 63.415771 321.335846 60.221558 321.407074 55.672424 C 321.457916 52.413391 319.256653 49.866211 313.842896 47.335571 L 309.836639 45.439148 C 307.611267 44.385498 305.684601 43.404602 304.502502 42.570496 C 300.211639 39.786987 297.879974 36.01532 297.947052 31.73877 C 298.067108 23.999512 306.152466 18.148254 316.833313 18.310791 C 320.568726 18.37207 323.99292 19.104492 328.450409 20.736145 L 328.328339 28.544617 C 323.976654 24.943237 320.340851 23.324036 316.308716 23.263 C 311.379181 23.18573 307.824585 25.915771 307.763733 29.855103 C 307.712952 33.114075 309.183746 34.631592 314.819153 37.297058 L 319.714172 39.616394 C 328.096649 43.482178 331.321259 47.473633 331.225403 53.719543 C 331.087128 62.614685 323.146698 68.673462 311.794159 68.494141 C 307.088348 68.420898 303.070007 67.407959 297.355011 64.942139 L 297.479187 56.999207 Z"/>
        <path id="path23" fill="#363636" stroke="none" d="M 377.6633 37.45575 C 375.004211 32.361328 371.683746 29.704285 366.9758 28.866333 C 363.812134 28.300476 360.705444 28.715515 358.054596 29.96875 C 352.850464 32.353455 349.849579 37.268799 348.352051 45.691162 C 346.187469 57.861572 350.640869 66.516602 360.054535 68.193054 C 364.025879 68.900757 367.830414 67.989563 372.481293 65.299988 L 375.126282 69.633179 C 368.812958 73.128723 363.246674 74.142212 356.699615 72.974121 C 342.946259 70.528625 334.960815 58.692139 337.493774 44.450378 C 340.147156 29.541748 352.705902 21.220398 368.444946 24.020142 C 372.635773 24.768799 375.408813 25.81427 379.327515 28.096985 L 377.6633 37.45575 Z"/>
        <path id="path24" fill="#363636" stroke="none" d="M 403.727081 34.163635 C 401.997894 37.724304 400.927856 40.153198 399.739594 43.331116 L 396.000031 53.316711 L 413.419586 59.839111 L 417.159149 49.854248 C 418.18454 47.119629 419.08786 44.266968 419.836304 41.427063 L 420.165894 40.320313 L 430.802551 44.303894 C 429.35791 47.099304 427.599976 51.152039 426.745483 53.442871 L 416.577026 80.599731 C 415.50293 83.459961 414.619965 86.031555 413.806274 89.062988 L 413.566223 90.133423 L 402.998749 86.177795 C 403.475067 85.120117 403.710815 84.700745 403.971222 84.00116 C 405.110809 81.819885 406.347534 78.727417 406.990448 77.010315 L 411.515442 64.925354 L 394.093719 58.403015 L 389.571259 70.487976 C 388.617065 73.031372 387.449127 76.583313 386.560059 80.021667 L 375.994995 76.066589 L 376.540009 75.037109 C 377.819946 72.469543 379.032532 69.662231 380.055878 66.927551 L 390.224213 39.770752 C 391.080872 37.479858 392.419556 33.268738 393.164185 30.208801 L 403.727081 34.163635 Z"/>
        <path id="path25" fill="#363636" stroke="none" d="M 419.783264 92.297852 C 421.414948 90.104675 423.637146 86.759949 424.698761 84.944885 L 439.331299 59.98584 C 440.877014 57.353455 442.468384 54.191589 443.896606 51.013672 L 471.414948 67.147583 L 468.599579 71.95282 L 467.281219 71.098328 C 464.034149 68.958008 460.555023 66.765076 458.300781 65.442383 L 450.56546 60.909485 L 442.358276 74.910706 L 448.22171 78.349304 C 450.801727 79.858643 453.352875 81.120544 457.165405 82.882141 L 454.007965 88.273865 C 450.512451 85.673218 447.908264 83.907532 445.65036 82.585144 L 439.852142 79.1875 L 431.12793 94.067871 L 440.730804 99.695313 C 444.144562 101.697021 446.793762 103.092957 450.66745 105.049866 L 447.749969 110.030334 L 419.132477 93.254089 L 419.783264 92.297852 Z"/>
        <path id="path26" fill="#363636" stroke="none" d="M 487.133789 85.384583 L 490.071625 87.813782 C 496.342102 93.005859 497.631714 97.774475 493.953339 102.222168 C 490.144989 106.828308 484.49707 106.035095 477.189117 99.988281 C 476.843384 99.699646 476.537964 99.361633 475.964233 98.885315 L 487.133789 85.384583 Z M 450.923798 112.280762 L 459.61496 119.470947 C 461.490875 116.614258 463.49704 113.957214 465.576294 111.446594 L 472.631714 102.913635 L 474.015442 104.057007 L 473.22998 117.778015 L 473.067108 122.314941 C 473.050812 122.563416 473.010376 122.970032 472.875854 123.478699 L 472.469208 127.018738 L 472.107056 129.802185 L 481.831604 137.850403 C 481.81955 135.990906 481.864563 135.23407 481.90918 134.827148 L 481.986633 130.395752 L 481.986633 129.692078 L 481.982544 125.016785 L 482.922485 109.578674 C 491.085052 114.478027 497.973755 114.005737 502.474213 108.565735 C 507.580444 102.389282 505.619171 93.978333 497.387451 87.170898 L 482.137054 74.552917 C 480.183807 77.612793 478.092438 80.375916 476.188293 82.678711 L 457.747528 104.96875 C 456.058746 107.011108 453.291718 110.006165 450.923798 112.280762 Z"/>
        <path id="path27" fill="#363636" stroke="none" d="M 543.395874 135.665344 C 539.957581 137.618225 537.703308 139.01825 534.920349 140.963196 L 526.188293 147.083008 L 536.865356 162.317383 L 545.597473 156.197571 C 547.990051 154.521179 550.350037 152.685791 552.571594 150.765442 L 553.475037 150.041199 L 559.989563 159.338867 C 557.214233 160.824036 553.475037 163.175964 551.472839 164.579468 L 527.722046 181.221985 C 525.219604 182.975769 523.038757 184.595459 520.65033 186.633789 L 519.848755 187.378418 L 513.374939 178.141785 C 514.363708 177.539551 514.795044 177.327942 515.409241 176.900696 C 517.578369 175.741333 520.349121 173.893738 521.850464 172.840088 L 532.417908 165.434265 L 521.745056 150.203674 L 511.17337 157.609558 C 508.947876 159.167969 505.977509 161.434692 503.299957 163.76593 L 496.826294 154.529053 L 497.855896 153.987854 C 500.366211 152.596802 502.954224 150.965088 505.342499 149.288391 L 529.089233 132.646179 C 531.095398 131.242615 534.578308 128.524231 536.922058 126.424622 L 543.395874 135.665344 Z"/>
        <path id="path28" fill="#363636" stroke="none" d="M 571.870789 192.863464 C 575.069153 200.024902 570.947144 205.62793 558.048401 211.385315 C 545.214966 217.110962 538.167419 216.492188 534.973267 209.33075 C 531.746277 202.100098 536.018738 196.509277 548.856628 190.78009 C 561.755371 185.026794 568.644226 185.632813 571.870789 192.863464 Z M 544.441589 180.888367 C 529.622498 187.504578 524.629578 198.320007 530.444214 211.348694 C 536.258728 224.37793 547.639954 227.889465 562.463379 221.277588 C 577.22168 214.689636 582.214233 203.874207 576.399597 190.845459 C 570.585022 177.812195 559.204224 174.304688 544.441589 180.888367 Z"/>
        <path id="path29" fill="#363636" stroke="none" d="M 585.652527 214.575928 L 595.43457 249.927002 L 589.546692 251.555115 C 588.964966 247.921204 588.264954 244.625305 587.784973 242.895752 L 586.588806 238.578796 L 554.321289 247.510498 C 553.601196 247.709656 552.421204 248.034912 550.874939 248.539429 C 549.035767 249.284058 547.745911 249.715942 547.090759 249.898743 C 546.325806 250.187408 545.88623 250.387054 544.856628 250.749176 L 541.813293 239.734131 C 542.895386 239.587891 543.375793 239.530945 544.181213 239.388245 C 544.836304 239.205383 546.167114 238.916748 548.09967 238.534302 C 549.694946 238.171631 550.891235 237.915527 551.611206 237.716125 L 583.878723 228.784668 L 582.682556 224.467468 C 582.202026 222.737854 581.111633 219.552063 579.764954 216.207642 L 585.652527 214.575928 Z"/>
        <path id="path30" fill="#363636" stroke="none" d="M 549.243286 263.253265 C 551.977539 263.196289 555.981201 262.894928 558.064514 262.618225 L 586.747131 258.842438 C 589.778748 258.443695 593.253723 257.760101 596.639099 256.934082 L 600.805786 288.558441 L 595.284119 289.286774 L 595.145813 287.724274 C 594.836304 283.846771 594.437561 279.752838 594.095886 277.161133 L 592.924133 268.274658 L 576.831299 270.394104 L 577.717957 277.136719 C 578.108704 280.098694 578.686646 282.88623 579.634583 286.979645 L 573.4375 287.793457 C 573.347839 283.439606 573.136292 280.302399 572.794617 277.706116 L 571.919617 271.041351 L 554.817993 273.295319 L 556.270447 284.330719 C 556.787109 288.257568 557.312134 291.199219 558.146301 295.459473 L 552.424988 296.216309 L 548.091614 263.330322 L 549.243286 263.253265 Z"/>
        <path id="path31" fill="#363636" stroke="none" d="M 554.695923 300.415527 C 555.574524 300.574219 556.864563 300.594574 558.699524 300.691956 C 560.530457 300.793701 561.617004 300.883209 562.296692 300.891602 L 591.292419 301.290375 C 594.348267 301.335114 597.200378 301.225525 600.126282 300.965088 L 601.281616 300.907867 L 601.122925 312.187164 C 599.975464 312.020355 599.430481 311.939209 598.755005 311.930817 C 598.006287 311.845367 596.647156 311.751801 594.747009 311.650055 C 592.84668 311.54834 591.760376 311.458832 591.154236 311.450928 L 557.535828 310.986572 L 557.405457 320.695465 C 557.356628 324.207031 557.442078 327.645355 557.657898 331.909668 L 551.883728 331.828278 L 552.319214 300.232422 C 553.409973 300.322205 553.950867 300.330078 554.695923 300.415527 Z"/>
        <path id="path32" fill="#363636" stroke="none" d="M 573.669556 327.962982 L 571.724548 346.765381 L 564.970032 346.070068 L 566.910828 327.267181 L 573.669556 327.962982 Z"/>
        <path id="path33" fill="#363636" stroke="none" d="M 588.387024 395.691162 L 587.37793 395.268219 C 584.667969 393.958008 582.185852 393.034088 579.101685 391.988861 L 556.807434 384.347015 C 554.557556 383.582031 553.031311 383.223694 551.509583 383.260315 C 547.717041 383.236176 544.901672 385.827881 543.099243 391.134125 C 541.540405 395.732086 542.037048 399.768799 544.401306 402.303802 C 545.304138 403.243225 546.814209 404.069489 549.002991 404.814117 L 572.090759 412.642914 C 572.798767 412.882965 573.982849 413.204681 575.545349 413.659912 C 577.372131 414.197021 578.682434 414.563232 579.414978 414.734131 C 580.082092 414.880859 580.599243 415.055817 581.762451 415.214508 L 579.484192 421.936768 C 578.434143 421.423828 577.986633 421.269196 577.302917 420.959961 C 574.971619 420.012146 572.057983 418.864685 570.198669 418.233734 L 547.041687 410.380524 C 537.459167 407.129639 534.741211 399.5 538.915894 387.191254 C 542.683777 376.087158 550.252014 371.318024 559.261169 374.369537 L 582.385376 382.296234 L 585.843811 383.309662 L 589.758301 384.245544 C 590.079651 384.351318 590.336243 384.440338 590.877014 384.542572 C 591.06842 384.607422 591.479614 384.668457 592.057556 384.867828 L 588.387024 395.691162 Z"/>
        <path id="path34" fill="#363636" stroke="none" d="M 531.607971 412.545502 C 533.829651 414.144104 537.239563 416.247803 539.013794 417.252838 L 564.18457 431.510895 C 566.845825 433.020508 569.929993 434.595459 573.185486 436.01123 L 568.807068 443.746155 L 526.399597 447.372162 L 548.266724 459.753662 C 550.626648 461.092621 553.597107 462.606293 556.12793 463.781982 L 557.169617 464.286774 L 553.710815 470.394104 C 551.277527 468.762451 547.290039 466.158264 545.284119 465.019196 L 520.052063 450.728851 C 517.037048 449.020111 514.383728 447.778809 511.140839 446.195709 L 515.230408 438.981598 L 558.699524 435.274475 L 536.067993 422.453278 C 533.642456 421.082031 530.199951 419.303864 527.160767 417.924469 L 530.582581 411.87793 L 531.607971 412.545502 Z"/>
        <path id="path35" fill="#363636" stroke="none" d="M 504.553345 463.086182 L 534.033325 487.858826 L 530.908325 491.577393 C 529.032532 493.807465 527.083313 495.38623 525.496277 496.008789 C 520.340881 497.921234 514.786682 496.082031 508.081299 490.446198 C 497.216675 481.315338 494.938293 474.524658 500.512451 467.887848 L 504.553345 463.086182 Z M 507.417938 451.440918 L 496.700043 464.197021 C 493.8638 467.570465 491.935486 471.025055 491.145844 473.970764 C 489.013794 482.422607 492.358276 490.894043 500.366211 497.624176 C 512.634155 507.935059 524.523804 507.093018 534.566223 495.138031 L 544.852478 482.999908 C 541.804993 480.929291 539.473328 479.162842 536.824524 476.933258 L 514.72168 458.264648 L 513.061646 456.869232 L 512.015808 455.892426 C 510.555023 454.569977 509.147125 453.288239 507.417938 451.440918 Z"/>
        <path id="path36" fill="#363636" stroke="none" d="M 452.714172 551.331299 C 454.081207 551.876282 454.618317 552.006775 455.595032 552.242493 C 459.586731 553.060364 464.225403 552.039063 467.740875 549.642395 C 473.543304 545.691162 476.01712 538.831299 473.828369 532.43457 C 472.762054 529.545288 471.000031 525.895935 469.014618 522.978455 C 461.979156 512.650757 454.036713 510.006165 446.256653 515.307861 C 443.473297 517.199951 442.740875 518.111633 441.695038 520.955872 L 446.704224 528.308838 C 448.693726 531.229858 450.333801 533.232117 452.819946 536.222839 L 443.680817 542.444092 C 443.192535 541.468018 442.924133 541.072815 442.52536 540.357178 C 441.389984 538.420105 439.599609 535.531372 438.802094 534.351318 L 437.117523 531.881165 C 436.849213 531.490295 436.393372 530.815125 435.681274 529.903625 C 434.293762 528.133606 433.467499 527.055359 433.178711 526.758301 C 432.735077 526.241821 432.462433 525.846558 431.652954 524.923462 C 432.385376 523.605103 432.902161 522.510498 433.365875 521.863281 C 435.652557 517.9245 439.387909 513.985962 443.399933 511.246979 C 456.120056 502.588379 469.783264 504.867035 477.966309 516.878723 C 486.60495 529.561584 483.272552 544.979065 469.999176 554.020935 C 466.17038 556.628662 463.07373 557.914429 458.064514 559.192383 L 452.714172 551.331299 Z"/>
        <path id="path37" fill="#363636" stroke="none" d="M 426.762146 565.291565 L 412.732056 550.362366 L 425.280884 544.755554 L 426.762146 565.291565 Z M 430.403778 521.419495 L 423.307556 524.589539 C 423.77536 527.283447 423.958344 528.60968 424.275848 531.148743 C 424.503723 532.755737 424.605438 533.903198 424.649933 534.925049 L 424.841309 539.371948 L 409.155396 546.383423 L 406.03421 543.241577 C 404.695892 541.903442 402.368286 539.074951 400.085449 536.153625 L 399.369171 535.282898 L 387.636322 540.519714 L 388.612885 541.427063 C 390.633392 543.201172 393.987915 546.314209 395.595428 547.900879 L 424.796692 577.551758 L 434.277466 573.320007 L 432.69043 571.0495 L 430.452484 532.332825 C 430.399567 530.570679 430.297974 526.677185 430.34668 524.04425 C 430.318329 523.242432 430.302063 522.656738 430.403778 521.419495 Z"/>
        <path id="path38" fill="#363636" stroke="none" d="M 390.875366 550.004578 C 385.013702 547.128052 380.35672 546.460449 375.734589 547.685486 C 370.174164 549.150085 367.035034 553.357422 368.198792 557.755737 C 369.030884 560.905457 371.840424 562.760925 377.736298 563.729065 L 382.106659 564.473694 C 384.533691 564.884949 386.653778 565.307861 388.016632 565.792603 C 392.901611 567.305725 396.167114 570.308655 397.259521 574.443054 C 399.239227 581.929993 393.039948 589.750916 382.712952 592.480957 C 379.101685 593.432861 375.604126 593.657166 370.872131 593.294495 L 368.876282 585.742432 C 374.039581 588.02948 377.978394 588.606995 381.878784 587.57373 C 386.645386 586.312622 389.327118 582.723206 388.320038 578.914856 C 387.487915 575.761108 385.660797 574.70343 379.512543 573.657959 L 374.172089 572.754639 C 365.057495 571.297424 360.872528 568.331116 359.275452 562.288635 C 357.000854 553.691345 363.004547 545.707397 373.98288 542.806763 C 378.532043 541.606384 382.674164 541.492188 388.842896 542.322021 L 390.875366 550.004578 Z"/>
        <path id="path39" fill="#363636" stroke="none" d="M 366.902557 596.033447 L 330.552094 600.924133 L 329.736267 594.869446 C 333.418793 594.784302 336.777893 594.535828 338.553741 594.300049 L 342.994934 593.697571 L 338.527557 560.518616 C 338.427856 559.77832 338.264984 558.565735 337.974182 556.958252 C 337.487915 555.041992 337.233368 553.703308 337.142059 553.032166 C 336.95871 552.234131 336.82251 551.770508 336.602905 550.704712 L 347.930786 549.178833 C 347.926727 550.272827 347.916656 550.757568 347.951263 551.574951 C 348.042938 552.246582 348.148743 553.605896 348.264557 555.575012 C 348.407104 557.202393 348.496643 558.41925 348.596191 559.163635 L 353.064209 592.34259 L 357.507446 591.744446 C 359.283325 591.508179 362.587494 590.857422 366.0867 589.974731 L 366.902557 596.033447 Z"/>
        <path id="path40" fill="#363636" stroke="none" d="M 325.909607 562.753052 C 320.98999 558.464294 316.660431 556.620789 311.879608 556.608826 C 306.12793 556.592041 302.012054 559.843445 301.999969 564.392578 C 301.993744 567.651611 304.227509 570.170288 309.676239 572.628235 L 313.706665 574.471802 C 315.944611 575.497192 317.885406 576.452881 319.077484 577.270752 C 323.404999 579.996948 325.785461 583.736633 325.777069 588.013428 C 325.758759 595.756775 317.751251 601.713257 307.067932 601.689148 C 303.334564 601.680725 299.898346 600.993347 295.42038 599.422424 L 295.438782 591.609924 C 299.837128 595.154053 303.495422 596.724915 307.527466 596.732788 C 312.459198 596.745544 315.977112 593.970459 315.984985 590.031128 C 315.993317 586.767822 314.502075 585.270935 308.831665 582.678711 L 303.90625 580.4245 C 295.473358 576.672852 292.195831 572.721558 292.210022 566.475891 C 292.230408 557.581299 300.089569 551.420288 311.444153 551.445007 C 316.150024 551.457214 320.182495 552.413391 325.927917 554.805725 L 325.909607 562.753052 Z"/>
        <path id="path41" fill="#363636" stroke="none" d="M 290.857056 601.042175 L 254.475845 596.375 L 255.255005 590.307861 C 258.833771 591.178894 262.142059 591.80957 263.920013 592.037415 L 268.365417 592.607117 L 272.630005 559.404236 C 272.723328 558.659058 272.879974 557.446777 273.012085 555.823242 C 273.040833 553.837585 273.140411 552.482605 273.225861 551.811218 C 273.256226 550.989258 273.242065 550.509094 273.307495 549.422424 L 284.643738 550.879639 C 284.356689 551.937622 284.222473 552.397156 284.04541 553.19873 C 283.957916 553.870117 283.7117 555.208801 283.312927 557.145935 C 283.029999 558.74884 282.800415 559.953308 282.70462 560.693848 L 278.442505 593.90509 L 282.887909 594.474487 C 284.665802 594.702393 288.027069 594.926147 291.634186 594.979065 L 290.857056 601.042175 Z"/>
        <path id="path42" fill="#363636" stroke="none" d="M 238.529587 581.494629 L 237.117508 561.055725 L 250.382492 564.661133 L 238.529587 581.494629 Z M 243.733719 599.092834 C 244.411285 596.607178 243.198776 594.796204 240.242508 593.994629 C 237.359558 593.209045 235.471664 594.177979 234.794174 596.663635 C 234.153305 599.023682 235.292496 600.81427 237.888779 601.51825 C 241.131653 602.397156 243.037918 601.648438 243.733719 599.092834 Z M 229.81955 595.312988 C 230.515411 592.757385 229.284607 591.016357 226.401642 590.235107 C 223.445831 589.429199 221.486221 590.377014 220.808731 592.863464 C 220.167923 595.223206 221.380432 597.03009 223.974609 597.73407 C 227.219574 598.621338 229.125854 597.872375 229.81955 595.312988 Z M 269.120422 549.838013 L 261.623322 547.799133 C 260.27832 550.175476 259.580414 551.322937 258.217499 553.487366 C 257.375031 554.874878 256.730011 555.827576 256.119995 556.644897 L 253.448364 560.213684 L 236.867081 555.709045 L 236.440018 551.298218 C 236.255005 549.418884 236.244583 545.756775 236.322083 542.045288 L 236.319992 540.918457 L 223.919617 537.549072 L 224.105011 538.867432 C 224.544144 541.520935 225.170837 546.053833 225.410843 548.303711 L 229.245819 589.738464 L 239.265823 592.460327 L 239.473343 589.701538 L 262.247925 558.313232 C 263.324158 556.913757 265.710388 553.833252 267.415436 551.835327 C 267.899567 551.192444 268.257507 550.724487 269.120422 549.838013 Z"/>
        <path id="path43" fill="#363636" stroke="none" d="M 214.015839 585.449707 L 180.214569 571.211975 L 182.588776 565.58075 C 185.803345 567.374878 188.822495 568.868225 190.474579 569.56427 L 194.604553 571.301758 L 207.60498 540.4505 C 207.893753 539.762878 208.370026 538.635742 208.933319 537.105774 C 209.490845 535.205322 209.950836 533.919495 210.213348 533.29718 C 210.461243 532.51593 210.577515 532.052063 210.929169 531.018799 L 221.462067 535.457825 C 220.902512 536.401611 220.650421 536.808777 220.265839 537.53302 C 220.001221 538.155334 219.404984 539.380371 218.501663 541.134094 C 217.800018 542.607117 217.256668 543.710083 216.967896 544.397461 L 203.967102 575.248718 L 208.097519 576.990479 C 209.749161 577.685791 212.927063 578.800964 216.389969 579.822021 L 214.015839 585.449707 Z"/>
        <path id="path44" fill="#363636" stroke="none" d="M 177.526672 569.840698 L 145.973785 551.140076 L 149.090393 545.882385 C 152.030441 548.096191 154.81955 549.984192 156.362091 550.899475 L 160.217102 553.186768 L 177.286652 524.386353 C 177.669144 523.743408 178.291641 522.68927 179.058777 521.24884 C 179.870422 519.441956 180.499146 518.233704 180.845001 517.651611 C 181.195007 516.911316 181.374176 516.463684 181.864609 515.491211 L 191.695023 521.318054 C 191.013779 522.176575 190.706253 522.546631 190.226242 523.210144 C 189.880432 523.796326 189.123352 524.927002 187.990448 526.542358 C 187.095001 527.910095 186.407471 528.918701 186.027084 529.561584 L 168.95752 558.366394 L 172.812912 560.653442 C 174.354996 561.564636 177.349976 563.102417 180.643784 564.579468 L 177.526672 569.840698 Z"/>
        <path id="path45" fill="#363636" stroke="none" d="M 169.989136 509.481262 C 168.060425 511.418396 165.389191 514.412903 164.074585 516.056519 L 146.038757 538.676147 C 144.134583 541.069275 142.108337 543.970459 140.240417 546.90802 L 115.299606 527.023071 L 118.772507 522.668701 L 119.95665 523.702454 C 122.865807 526.281982 125.995003 528.951782 128.039612 530.579102 L 135.048355 536.169922 L 145.165833 523.474609 L 139.852081 519.23877 C 137.514175 517.374878 135.168335 515.767883 131.642471 513.477051 L 135.538742 508.589905 C 138.62915 511.662018 140.956696 513.781982 143.001236 515.410095 L 148.256241 519.600891 L 159.010818 506.116211 L 150.309174 499.174469 C 147.212921 496.70459 144.791672 494.946777 141.235413 492.460358 L 144.832489 487.947815 L 170.766266 508.62677 L 169.989136 509.481262 Z"/>
        <path id="path46" fill="#363636" stroke="none" d="M 141.023758 486.230957 C 138.793762 487.809479 135.701691 490.360748 134.177521 491.715729 L 112.552895 510.933655 C 110.269989 512.964111 107.780014 515.377014 105.387497 518.00177 L 99.48336 511.357117 L 109.747505 470.052582 L 90.964569 486.743652 C 88.934135 488.550293 86.547913 490.869629 84.615005 492.887848 L 83.80127 493.710052 L 79.136276 488.460785 C 81.467499 486.690765 85.219193 483.756989 86.946678 482.222992 L 108.62001 462.956207 C 111.209999 460.656982 113.242531 458.549469 115.785851 455.990082 L 121.29332 462.191254 L 110.766663 504.529053 L 130.208328 487.248199 C 132.289566 485.396545 135.082947 482.715332 137.371643 480.282074 L 141.98793 485.474121 L 141.023758 486.230957 Z"/>
        <path id="path47" fill="#363636" stroke="none" d="M 68.247475 472.550934 C 68.994141 471.822601 69.203758 471.517426 70.009171 470.752441 C 72.133316 468.379944 73.319565 466.939514 75.13205 464.583832 L 92.956673 441.915375 L 64.693321 447.762543 C 61.448353 448.458344 57.91626 449.333435 54.500389 450.399261 L 50.756645 444.369232 C 53.851254 443.941742 58.547085 443.139893 61.366653 442.529541 L 98.478317 434.973633 L 100.712074 432.003265 L 106.345428 441.081207 L 80.924606 473.914063 C 80.464554 474.463379 79.567528 475.720947 78.65416 477.079498 C 77.506638 478.585541 76.173721 480.554688 75.392471 481.742828 L 74.629593 482.833344 L 68.247475 472.550934 Z"/>
        <path id="path48" fill="#363636" stroke="none" d="M 92.195831 419.474518 C 89.581238 420.26416 85.80748 421.631348 83.870445 422.453278 L 57.254982 433.793884 C 54.443359 434.994232 51.281673 436.584961 48.242062 438.285797 L 35.737926 408.940094 L 40.860813 406.755035 L 41.414577 408.228027 C 42.749149 411.87793 44.23415 415.710938 45.259602 418.119537 L 48.773319 426.363861 L 63.706654 420.003754 L 61.04126 413.749664 C 59.869576 410.999268 58.569145 408.467834 56.554985 404.777496 L 62.302525 402.332031 C 63.564175 406.503021 64.605843 409.469086 65.631233 411.873871 L 68.265854 418.058746 L 84.134995 411.296326 L 79.772888 401.058441 C 78.220428 397.416656 76.924576 394.718658 74.975395 390.841156 L 80.287491 388.578766 L 93.288361 419.092041 L 92.195831 419.474518 Z"/>
        <path id="path49" fill="#363636" stroke="none" d="M 33.992512 384.925049 L 33.084995 381.226318 C 31.14624 373.315918 32.954979 368.722015 38.562077 367.34668 C 44.364613 365.922516 48.423321 369.926178 50.68372 379.138672 C 50.791233 379.574066 50.832111 380.025726 51.009178 380.754059 L 33.992512 384.925049 Z M 79.097496 384.941345 L 76.409973 373.983246 C 73.201691 375.155121 70.005417 376.095062 66.8396 376.868408 L 56.087112 379.504883 L 55.66209 377.763336 L 64.473343 367.220551 L 67.30957 363.680511 C 67.472519 363.484924 67.749153 363.188416 68.155861 362.854492 L 70.595421 360.258209 L 72.548355 358.240479 L 69.541229 345.980316 C 68.440819 347.477448 67.954575 348.05957 67.67794 348.360931 L 64.972115 351.868408 L 64.550842 352.433746 L 61.767513 356.193268 L 51.802509 368.022125 C 48.174984 359.216553 42.366665 355.489594 35.506248 357.174164 C 27.724138 359.08252 24.281693 367.000824 26.827112 377.376801 L 31.542906 396.602875 C 34.932518 395.308655 38.258743 394.340485 41.162109 393.628418 L 69.258751 386.735504 C 71.832085 386.105072 75.842094 385.352051 79.097496 384.941345 Z"/>
        <path id="path50" fill="#363636" stroke="none" d="M 40.732891 335.441559 L 24.945005 336.507385 L 24.568748 330.916565 C 24.432501 328.902405 24.546242 327.547424 24.737486 326.335114 C 25.376257 322.697418 27.878761 320.435059 31.536674 320.186584 C 36.891682 319.828766 39.925003 323.442047 40.411251 330.672424 L 40.732891 335.441559 Z M 69.639145 344.202148 L 68.247475 323.555725 C 68.056236 320.723694 67.62085 318.282562 66.864143 316.162598 C 64.749969 310.014069 59.314156 306.112152 53.48708 306.506592 C 46.372478 306.98291 42.366665 312.195313 41.8904 321.285492 C 40.360386 313.753754 35.931271 309.635895 29.970423 310.034668 C 24.615416 310.396545 20.483335 314.717834 19.596228 320.768707 C 19.311651 322.583252 19.258753 324.833649 19.413313 327.145111 L 20.784569 347.494232 C 22.932943 347.050446 25.022507 346.757477 27.11792 346.541565 L 30.708757 346.301758 L 59.63332 344.202148 L 63.238335 344.185883 L 65.073776 344.137054 C 65.615021 344.100433 66.298355 344.128662 67.256676 344.214111 C 67.797913 344.177979 68.210854 344.226563 68.548775 344.202148 L 69.639145 344.202148 Z M 63.838768 333.887207 L 45.678776 335.111969 L 45.302517 329.521149 C 44.781685 321.765381 47.631645 317.607086 53.662109 317.199951 C 57.727116 316.927582 61.053341 318.799072 62.435024 322.147858 C 62.927055 323.38916 63.236683 324.939697 63.366634 326.880371 L 63.838768 333.887207 Z"/>
        <path id="path51" fill="#363636" stroke="none" d="M 30.578741 282.824951 L 50.527065 278.145844 L 49.100811 291.817444 L 30.578741 282.824951 Z M 66.742073 307.930725 L 67.547478 300.203674 C 64.984192 299.259918 63.73914 298.751312 61.385029 297.758209 C 59.877522 297.147858 58.835857 296.663635 57.930439 296.192139 L 53.979557 294.128662 L 55.763752 277.039063 L 60.046261 275.912201 C 61.87331 275.423676 65.486656 274.825531 69.158745 274.308746 L 70.271683 274.125916 L 71.604599 261.344879 L 70.335007 261.735504 C 67.787491 262.598389 63.413303 263.944977 61.2346 264.543396 L 20.951271 274.984222 L 19.872919 285.311371 L 22.627893 285.071289 L 57.269161 302.511322 C 58.821678 303.345459 62.245815 305.208832 64.493752 306.567871 C 65.205826 306.941956 65.722527 307.222992 66.742073 307.930725 Z"/>
        <path id="path52" fill="#363636" stroke="none" d="M 71.061264 259.570801 C 68.54248 258.512848 64.744186 257.227051 62.790806 256.644928 L 35.056686 248.409485 C 32.126682 247.542786 28.763771 246.696167 25.272497 246.0495 L 27.80374 237.529236 L 68.308319 224.467468 L 44.222069 217.314148 C 41.617901 216.540771 38.38501 215.735352 35.652477 215.157532 L 34.523327 214.901184 L 36.523312 208.166992 C 39.257938 209.216553 43.731689 210.856628 45.943325 211.511719 L 73.742485 219.768005 C 77.062927 220.752441 79.925407 221.370911 83.439194 222.180908 L 81.079163 230.127441 L 39.557076 243.514465 L 64.491653 250.920074 C 67.16124 251.709473 70.914589 252.669495 74.188362 253.328674 L 72.210823 259.989899 L 71.061264 259.570801 Z"/>
        <path id="path53" fill="#363636" stroke="none" d="M 86.063766 204.370361 L 51.822918 186.759949 L 54.0425 182.43866 C 55.374973 179.850769 56.925392 177.87323 58.333332 176.916992 C 62.935448 173.909973 68.758331 174.467468 76.548325 178.475403 C 89.170395 184.965515 92.897476 191.081238 88.934135 198.787903 L 86.063766 204.370361 Z M 85.856247 216.35791 L 93.473305 201.542358 C 95.489563 197.624207 96.602501 193.82782 96.718346 190.78009 C 96.923767 182.06427 91.780411 174.548828 82.478775 169.763672 C 68.227066 162.435364 56.825829 165.894043 49.684589 179.777527 L 42.346256 193.896973 C 45.778339 195.243835 48.443729 196.444153 51.523781 198.031372 L 77.217484 211.328857 L 79.148354 212.321167 L 80.383362 213.041687 C 82.100426 214.005737 83.756638 214.942139 85.856247 216.35791 Z"/>
        <g id="g1">
            <path id="path54" fill="#363636" stroke="none" d="M 267.938354 679.443848 L 284.165436 679.443848 C 303.590851 679.443848 313.934143 689.961975 313.934143 710.555481 C 313.934143 731.503052 301.450409 741.662842 284.165436 741.662842 L 267.938354 741.662842 L 267.938354 679.443848 Z M 279.347931 732.927185 L 283.180817 732.927185 C 296.014587 732.927185 301.808746 724.190735 301.808746 710.555481 C 301.808746 696.916199 296.014587 688.179993 283.180817 688.179993 L 279.347931 688.179993 L 279.347931 732.927185 Z"/>
            <path id="path55" fill="#363636" stroke="none" d="M 325.539154 679.443848 L 358.25412 679.443848 L 358.25412 688.537842 L 336.948792 688.537842 L 336.948792 705.115479 L 357.090393 705.115479 L 357.090393 714.209473 L 336.948792 714.209473 L 336.948792 732.572937 L 359.140778 732.572937 L 359.140778 741.662842 L 325.539154 741.662842 L 325.539154 679.443848 Z"/>
            <path id="path56" fill="#363636" stroke="none" d="M 371.014526 679.443848 L 382.423798 679.443848 L 382.423798 704.76123 L 400.872925 704.76123 L 400.872925 679.443848 L 412.282562 679.443848 L 412.282562 741.662842 L 400.872925 741.662842 L 400.872925 714.209473 L 382.423798 714.209473 L 382.423798 741.662842 L 371.014526 741.662842 L 371.014526 679.443848 Z"/>
            <path id="path57" fill="#363636" stroke="none" d="M 448.667542 678.552979 C 461.590454 678.552979 473.44754 688.179993 473.44754 710.555481 C 473.44754 732.927185 461.590454 742.554199 448.667542 742.554199 C 435.744232 742.554199 423.887115 732.927185 423.887115 710.555481 C 423.887115 688.179993 435.744232 678.552979 448.667542 678.552979 Z M 448.667542 733.818054 C 455.885834 733.818054 461.679962 727.669495 461.679962 710.555481 C 461.679962 693.441223 455.885834 687.288635 448.667542 687.288635 C 441.449219 687.288635 435.654572 693.441223 435.654572 710.555481 C 435.654572 727.669495 441.449219 733.818054 448.667542 733.818054 Z"/>
            <path id="path58" fill="#363636" stroke="none" d="M 509.84079 706.812012 L 529.982483 706.812012 L 529.982483 739.34375 C 526.776245 741.040527 521.250427 742.554199 513.136658 742.554199 C 493.174103 742.554199 482.562134 729.004639 482.562134 710.555481 C 482.562134 692.102539 493.174103 678.552979 513.136658 678.552979 C 520.265808 678.552979 525.880798 680.159973 528.290039 681.229858 L 527.663269 691.47998 C 524.009216 689.249878 519.020447 687.646973 513.315857 687.646973 C 501.190063 687.646973 494.687897 697.628235 494.687897 710.555481 C 494.687897 724.548828 501.011292 733.464294 512.689209 733.464294 C 515.366638 733.464294 517.775452 732.927185 519.289124 732.304077 L 519.289124 715.544128 L 509.84079 715.544128 L 509.84079 706.812012 Z"/>
            <path id="path59" fill="#363636" stroke="none" d="M 574.926636 726.689148 L 553.532043 726.689148 L 549.072144 741.662842 L 537.665039 741.662842 L 558.520386 679.443848 L 571.004089 679.443848 L 591.056213 741.662842 L 579.297119 741.662842 L 574.926636 726.689148 Z M 572.517883 717.952942 L 564.672974 688.89209 L 564.493713 688.89209 L 555.940857 717.952942 L 572.517883 717.952942 Z"/>
            <path id="path60" fill="#363636" stroke="none" d="M 623.168701 679.443848 L 641.357544 679.443848 C 654.191223 679.443848 660.075012 684.257507 660.075012 694.775879 C 660.075012 704.671692 653.832886 707.613892 649.731201 709.127014 L 649.731201 709.306335 C 654.549133 710.376709 661.499146 713.762146 661.499146 724.190735 C 661.499146 735.510742 653.206238 741.662842 642.154968 741.662842 L 623.168701 741.662842 L 623.168701 679.443848 Z M 634.220398 705.473328 L 640.104187 705.473328 C 645.719543 705.473328 649.023315 701.281982 649.023315 696.204102 C 649.023315 690.942871 645.279968 687.825745 639.84375 687.825745 L 634.220398 687.825745 L 634.220398 705.473328 Z M 634.220398 732.927185 L 640.551636 732.927185 C 646.704224 732.927185 650.089661 729.183411 650.089661 723.38916 C 650.089661 717.952942 647.241211 713.851135 640.193787 713.851135 L 634.220398 713.851135 L 634.220398 732.927185 Z"/>
            <path id="path61" fill="#363636" stroke="none" d="M 674.259583 698.430115 C 677.384583 697.005981 681.754578 695.044678 688.793701 695.044678 C 703.051636 695.044678 706.355774 701.998352 706.355774 713.497375 L 706.355774 733.553833 C 706.355774 736.849731 706.705872 739.880859 706.974182 741.662842 L 696.988831 741.662842 C 696.459961 739.880859 696.370422 737.650757 696.370422 735.425293 L 696.191284 735.425293 C 693.424622 739.168762 689.949524 742.374878 683.357849 742.374878 C 676.220825 742.374878 669.628784 737.471985 669.628784 728.914856 C 669.628784 716.43927 679.793274 713.318359 693.782532 713.318359 L 696.012512 713.318359 L 696.012512 711.625916 C 696.012512 707.076782 693.782532 702.889465 687.459167 702.889465 C 681.925476 702.889465 677.026245 705.562805 674.886169 707.345032 L 674.259583 698.430115 Z M 696.012512 719.202148 L 695.035828 719.202148 C 685.579529 719.202148 679.964172 721.163391 679.964172 727.848816 C 679.964172 732.035828 682.731262 734.888428 687.011719 734.888428 C 693.603394 734.888428 696.012512 729.985046 696.012512 721.785706 L 696.012512 719.202148 Z"/>
            <path id="path62" fill="#363636" stroke="none" d="M 733.642456 730.432617 L 733.821594 730.432617 L 742.643372 695.756775 L 753.344604 695.756775 L 736.588806 750.399231 C 734.627014 756.726563 730.883789 761.450928 723.478333 761.450928 C 720.540344 761.450928 718.042114 760.827881 716.438782 760.290771 L 717.06543 751.823425 C 718.310425 752.270752 719.563782 752.714539 721.256653 752.714539 C 724.552551 752.804321 725.976685 750.753235 727.400818 746.029114 L 728.206238 742.110962 L 712.963745 695.756775 L 724.373352 695.756775 L 733.642456 730.432617 Z"/>
            <path id="path63" fill="#363636" stroke="none" d="M 793.375793 739.433289 C 791.064575 740.413635 786.246643 742.374878 779.654968 742.374878 C 764.852173 742.374878 758.439148 731.766968 758.439148 719.377136 C 758.439148 705.652588 765.657532 695.044678 777.335388 695.044678 C 787.231201 695.044678 795.695007 700.838684 795.695007 719.556152 L 795.695007 721.696167 L 769.132507 721.696167 C 769.132507 729.541748 772.257507 734.265381 780.810425 734.265381 C 787.581238 734.265381 790.795776 732.215088 792.84668 730.701172 L 793.375793 739.433289 Z M 785.001648 714.742493 C 785.001648 706.632996 782.324219 702.531128 777.335388 702.531128 C 771.541199 702.531128 769.132507 708.683777 769.132507 714.742493 L 785.001648 714.742493 Z"/>
            <path id="path64" fill="#363636" stroke="none" d="M 805.517456 703.333008 C 805.517456 700.480896 805.427917 697.807007 805.159607 695.756775 L 815.144958 695.756775 C 815.234619 698.519104 815.50293 701.371765 815.50293 704.134583 L 815.682068 704.134583 C 817.016724 700.569885 820.491638 695.044678 827.352173 695.044678 C 828.067932 695.044678 828.605042 695.223206 829.223755 695.312988 L 829.223755 705.652588 C 828.24707 705.383789 827.262512 705.204468 826.106628 705.204468 C 821.557495 705.204468 816.569153 707.96759 816.569153 716.524475 L 816.569153 741.662842 L 805.517456 741.662842 L 805.517456 703.333008 Z"/>
            <path id="path65" fill="#363636" stroke="none" d="M 837.442932 703.333008 C 837.442932 700.480896 837.353394 697.807007 837.084961 695.756775 L 847.420349 695.756775 C 847.509644 698.075867 847.77832 700.480896 847.77832 702.799988 L 848.047119 702.799988 L 847.957458 702.799988 C 849.560425 700.037109 852.685425 695.044678 860.172546 695.044678 C 870.597473 695.044678 873.722473 702.799988 873.722473 712.069153 L 873.722473 741.662842 L 862.662903 741.662842 L 862.662903 714.119934 C 862.662903 707.076782 860.880432 704.134583 856.339661 704.134583 C 850.545349 704.134583 848.494568 709.038025 848.494568 714.92157 L 848.494568 741.662842 L 837.442932 741.662842 L 837.442932 703.333008 Z"/>
        </g>
    </g>
    <path id="Shape-copy" fill="#363636" fill-rule="evenodd" stroke="none" d="M 266.041229 426.5 C 275.009735 440.450012 290.560791 465.577148 306.385284 491.338104 C 322.209778 517.099121 334.859955 538.474121 334.496796 538.838135 C 334.133636 539.202148 323.635803 539.584045 311.168243 539.686768 C 296.264252 539.80957 285.10849 539.398071 278.598267 538.485535 C 273.152313 537.722107 268.089813 536.864746 267.348267 536.580139 C 266.239594 536.154724 266.003662 526.327759 266.02063 481.281372 L 266.041229 426.5 Z M 344.602997 537.599731 C 337.705994 538.306335 337.705994 538.306335 339.438812 535.403137 C 340.391876 533.806396 355.870514 508.68042 373.835815 479.567657 C 391.801117 450.454865 406.922058 426.665283 407.437897 426.701904 C 407.953735 426.738556 417.588837 441.72641 428.849243 460.00827 C 449.322693 493.247986 449.322693 493.247986 446.911346 495.155518 C 445.585114 496.204651 440.450012 499.775665 435.5 503.091156 C 430.549988 506.406616 419.946655 512.387939 411.936981 516.383057 C 403.927307 520.378052 391.102325 525.729309 383.436981 528.274597 C 375.771637 530.819946 365.450012 533.800415 360.5 534.897827 C 355.549988 535.9953 348.396332 537.211182 344.602997 537.599731 Z M 407.25415 425.252594 C 395.258545 405.788666 379.54422 380.249725 364.59436 355.942017 C 349.64447 331.634338 336.996338 311.742645 336.487427 311.738281 C 335.978485 311.733917 320.378693 336.387909 301.821228 366.524963 C 283.263763 396.662018 267.612305 421.787689 267.040192 422.359802 C 266.319946 423.080078 266.016144 388.506042 266.05246 309.950012 C 266.101929 202.946594 266.201355 196.637329 267.80246 198.917297 C 268.736115 200.246765 273.325012 207.47821 278 214.987122 C 282.674988 222.495972 297.742523 246.922302 311.483368 269.267761 C 336.466736 309.895874 336.466736 309.895874 339.055603 305.697937 C 340.479492 303.389069 352.155334 284.399994 365.001984 263.5 C 377.848602 242.599976 392.441071 218.875977 397.429718 210.779907 C 402.418365 202.683899 406.946198 196.195129 407.491547 196.360413 C 408.036896 196.525757 424.011871 221.929077 442.991547 252.812286 C 461.971191 283.695465 477.777008 308.971741 478.115601 308.981781 C 478.454193 308.991791 488.751526 292.6875 500.998596 272.75 C 513.245667 252.8125 524.065857 235.652771 525.043518 234.617249 C 526.76178 232.797302 526.923767 233.055176 529.901367 242.350647 C 531.595581 247.639587 534.103882 257.508911 535.475403 264.282593 C 536.846863 271.056274 538.49469 282.311676 539.137085 289.294617 C 539.838745 296.921143 540.061829 308.681122 539.695801 318.745453 C 539.360657 327.960449 538.175476 340.899994 537.062073 347.5 C 535.948608 354.100006 533.888062 363.774994 532.482971 369 C 531.077881 374.225006 529.111206 380.705383 528.11261 383.400879 C 526.296875 388.301727 526.296875 388.301727 515.671021 371.136932 C 509.826813 361.696289 499.085541 344.303406 491.801514 332.486084 C 484.517487 320.668732 478.319794 311.019989 478.0289 311.044434 C 477.738007 311.068878 464 333.12915 447.5 360.067322 C 431 387.005463 415.194672 412.692291 412.377075 417.14917 L 407.25415 425.252594 Z M 408.659943 192.475464 C 407.273193 194.348145 406.933258 194.036194 402.122223 186.475464 C 399.331024 182.088928 383.766968 156.900024 367.5354 130.5 C 341.0289 87.388184 338.251404 82.471313 340.261749 82.218384 C 341.492767 82.063477 346.549988 82.633362 351.5 83.484741 C 356.450012 84.336182 365.450012 86.417114 371.5 88.109131 C 377.549988 89.801086 387.178528 93.003662 392.896759 95.225891 C 398.61496 97.448181 408.514954 101.936523 414.896759 105.199951 C 421.278534 108.46344 430.774994 114.02002 436 117.547974 C 441.225006 121.075867 446.347412 124.62677 447.383118 125.438782 C 449.173218 126.842224 448.299622 128.485229 429.694489 158.707581 C 418.930023 176.19342 409.464478 191.388977 408.659943 192.475464 Z M 267.852295 190.884888 C 266.042725 193.214722 266 192.011902 266 138.741821 C 266 92.459473 266.215576 84.131226 267.425629 83.666931 C 268.209717 83.366028 273.497223 82.530396 279.175629 81.809937 C 284.929321 81.079895 299.313751 80.5 311.667542 80.5 C 323.85968 80.5 334.158447 80.82373 334.55365 81.219421 C 334.948853 81.615112 320.51947 105.9151 302.488373 135.219421 C 284.457275 164.523743 268.871033 189.573181 267.852295 190.884888 Z"/>
</svg>
